<!-- icon666.com - MILLIONS vector ICONS FREE --><svg id="Layer_1" viewBox="0 0 200 200" xmlns="http://www.w3.org/2000/svg" data-name="Layer 1"><path d="m100 0a100 100 0 1 0 100 100 100 100 0 0 0 -100-100zm-12 149h-21.68a15.32 15.32 0 0 1 -15.32-15.3v-21.7a4 4 0 0 1 8 0v21.7a7.31 7.31 0 0 0 7.32 7.3h21.68a4 4 0 1 1 0 8zm0-90h-21.77a7.23 7.23 0 0 0 -7.23 7.23v21.77a4 4 0 1 1 -8 0v-21.77a15.24 15.24 0 0 1 15.23-15.23h21.77a4 4 0 1 1 0 8zm61 74.77a15.24 15.24 0 0 1 -15.23 15.23h-21.77a4 4 0 0 1 0-8h21.79a7.23 7.23 0 0 0 7.23-7.23v-21.77a4 4 0 0 1 8 0zm0-45.77a4 4 0 1 1 -8 0v-21.68a7.31 7.31 0 0 0 -7.3-7.32h-21.7a4 4 0 0 1 0-8h21.7a15.32 15.32 0 0 1 15.3 15.32z"></path></svg>