<!-- icon666.com - MILLIONS vector ICONS FREE --><svg fill="none" viewBox="0 0 24 24" xmlns="http://www.w3.org/2000/svg"><path clip-rule="evenodd" d="m9.5 10c.27614 0 .5-.22386.5-.5v-6c0-.27614-.22386-.5-.5-.5h-1c-.27614 0-.5.22386-.5.5v4.5h-4.5c-.27614 0-.5.22386-.5.5v1c0 .27614.22386.5.5.5zm5 0c-.2761 0-.5-.22386-.5-.5v-6c0-.27614.2239-.5.5-.5h1c.2761 0 .5.22386.5.5v4.5h4.5c.2761 0 .5.22386.5.5v1c0 .27614-.2239.5-.5.5zm-4.5 4.5c0-.2761-.22386-.5-.5-.5h-6c-.27614 0-.5.2239-.5.5v1c0 .2761.22386.5.5.5h4.5v4.5c0 .2761.22386.5.5.5h1c.27614 0 .5-.2239.5-.5zm4.5-.5c-.2761 0-.5.2239-.5.5v6c0 .2761.2239.5.5.5h1c.2761 0 .5-.2239.5-.5v-4.5h4.5c.2761 0 .5-.2239.5-.5v-1c0-.2761-.2239-.5-.5-.5z" fill="rgb(0,0,0)" fill-rule="evenodd"></path></svg>