<!-- icon666.com - MILLIONS vector ICONS FREE --><svg id="Layer_2" enable-background="new 0 0 32 32" viewBox="0 0 32 32" xmlns="http://www.w3.org/2000/svg"><g><path d="m16 2c-7.72998 0-14 6.26996-14 14 0 7.72998 6.27002 14 14 14s14-6.27002 14-14c0-7.73004-6.27002-14-14-14zm1.96997 21.28998c0 .33002-.17999.63-.46997.78003-.12.07001-.26001.08997-.40002.08997-.16998 0-.34998-.04999-.5-.14996l-4.84998-3.44h-3.88c-.47998 0-.87-.39001-.87-.87v-7.40002c0-.47003.39001-.87.87-.87h3.88l4.84998-3.44c.27002-.18.61999-.21003.90002-.05.28998.13995.46997.44.46997.76996zm2.12006-4.52997c-.22003 0-.45001-.09003-.62006-.26001-.33997-.33002-.33997-.89001 0-1.23004.34003-.33997.53003-.78998.53003-1.26996 0-.48004-.19-.92999-.53003-1.27002-.33997-.33997-.33997-.89001 0-1.22998.35004-.34003.90002-.34003 1.24005 0 .66998.66998 1.02997 1.54999 1.02997 2.5s-.35999 1.83997-1.02997 2.5c-.17004.16998-.40002.26001-.61999.26001zm2.81994 2.28998c-.16998.16998-.38995.26001-.62.26001-.21997 0-.44-.09003-.60999-.26001-.33997-.33002-.33997-.89001-.01001-1.22998 1.03003-1.02002 1.59003-2.38 1.59003-3.82001s-.56-2.79999-1.59003-3.82001c-.32996-.34003-.32996-.90002.01001-1.22998.34003-.34003.89001-.34003 1.22998 0 1.35005 1.34998 2.09004 3.14997 2.09004 5.04999 0 1.89996-.73999 3.70001-2.09003 5.04999z"></path></g></svg>