<!-- icon666.com - MILLIONS vector ICONS FREE --><svg id="Layer_2" enable-background="new 0 0 32 32" viewBox="0 0 32 32" xmlns="http://www.w3.org/2000/svg"><g><path d="m16 2c-7.72998 0-14 6.26996-14 14 0 7.72998 6.27002 14 14 14s14-6.27002 14-14c0-7.73004-6.27002-14-14-14zm1.97998 21.28998c0 .33002-.19.63-.46997.78003-.13.06-.27002.08997-.40002.08997-.17999 0-.35999-.04999-.51001-.15997l-4.84998-3.43h-3.88c-.47998 0-.87-.39001-.87-.87v-7.40002c0-.47998.39001-.87.87-.87h3.88l4.84998-3.44c.27002-.17999.62-.21002.91003-.06.27997.14996.46997.45001.46997.77997zm6.76001-5.77997c.35004.34998.35004.89996 0 1.23999-.16998.16998-.39001.25-.60999.25-.22003 0-.45001-.08002-.62-.25l-1.51-1.52002-1.52002 1.52002c-.16998.16998-.38995.25-.60998.25-.22998 0-.45001-.08002-.62-.25-.34003-.34003-.34003-.89001 0-1.23999l1.52002-1.51001-1.52002-1.52002c-.34003-.33997-.34003-.89001 0-1.22998.34003-.34003.89001-.34003 1.22998 0l1.52002 1.51996 1.51001-1.51996c.33997-.34003.89001-.34003 1.22998 0 .35004.33997.35004.89001 0 1.22998l-1.51001 1.52002z"></path></g></svg>