<!-- icon666.com - MILLIONS vector ICONS FREE --><svg id="Capa_1" enable-background="new 0 0 554.516 554.516" viewBox="0 0 554.516 554.516" xmlns="http://www.w3.org/2000/svg"><g><path d="m277.258 0c-153.125 0-277.258 124.133-277.258 277.258s124.133 277.258 277.258 277.258 277.258-124.133 277.258-277.258c-.173-153.054-124.204-277.085-277.258-277.258zm0 517.548c-132.709 0-240.29-107.582-240.29-240.29s107.582-240.29 240.29-240.29 240.29 107.582 240.29 240.29c-.153 132.645-107.645 240.137-240.29 240.29z"></path><path d="m359.881 147.871h-165.246c-25.822.031-46.744 20.961-46.764 46.783v165.209c.02 25.822 20.942 46.752 46.764 46.783h165.246c25.822-.031 46.744-20.961 46.764-46.783v-165.209c-.02-25.822-20.942-46.752-46.764-46.783zm9.796 211.991c0 5.413-4.383 9.805-9.796 9.815h-165.246c-5.413-.01-9.796-4.402-9.796-9.815v-165.208c0-5.413 4.383-9.805 9.796-9.815h165.246c5.413.01 9.796 4.402 9.796 9.815z"></path></g></svg>